<svg width="374" height="327" viewBox="0 0 374 327" fill="none" xmlns="http://www.w3.org/2000/svg">
<path d="M115.874 231.457C113.252 234.305 110.771 236.781 108.542 239.451C100.696 248.903 90.8236 255.861 80.4752 262.13C72.705 266.826 64.7111 271.161 56.8601 275.73C55.8389 276.334 54.9819 277.351 54.1107 278.249C51.0702 281.35 47.6363 281.849 43.4655 280.667C39.9988 279.784 36.4447 279.291 32.8691 279.198C28.2255 278.954 23.6536 278.806 20.0231 275.331C17.6215 273.034 17.0813 270.164 18.6986 267.277C21.4043 262.475 25.8997 260.612 31.007 261.03C35.771 261.413 38.1974 258.845 40.113 255.298C43.3211 249.303 44.0642 242.627 45.0224 236.014C46.1794 228.184 46.548 220.206 49.5322 212.705C50.582 210.055 49.3432 208.703 45.84 208.258C41.9532 207.759 39.0557 205.932 37.5107 202.296C35.502 197.57 37.3087 191.469 42.1701 189.009C47.0314 186.55 50.9083 183.036 54.6695 179.241C58.5747 175.325 62.3096 174.555 67.9517 176.792C73.8302 179.133 80.5938 179.32 87.0001 180.223C93.0566 181.081 99.2063 181.347 105.218 182.423C114.782 184.131 120.483 190.605 121.602 200.282C121.91 202.857 122.219 205.431 122.549 208.189L141.62 204.774C145.971 203.991 150.292 203.003 154.67 202.446C168.622 200.656 182.568 198.818 196.557 197.434C200.675 197.035 204.989 197.904 209.126 198.668C211.631 199.129 214.134 200.68 214.143 203.63C214.151 206.58 212.777 209.306 210.095 210.514C205.53 212.572 200.866 214.756 196.008 215.737C184.124 218.128 172.1 219.856 160.11 221.86C156.469 222.471 152.827 223.09 149.184 223.715C143.023 224.77 138.762 227.995 137.333 234.331C136.687 237.206 136.165 240.11 135.433 243.772C139.409 242.864 142.735 241.875 146.138 241.397C151.739 240.59 157.399 239.556 163.007 239.63C169.216 239.708 172.937 246.911 170.163 252.51C169.702 253.265 169.001 253.843 168.172 254.15C161.238 256.874 154.319 259.64 147.306 262.121C140.433 264.586 133.449 266.709 127.755 271.578C121.803 276.67 119.306 283.216 119.558 291.08C126.182 292.018 132.115 289.972 138.154 288.121C143.954 286.333 149.934 284.955 155.876 283.576C157.615 283.17 159.838 282.554 161.032 284.535C162.463 286.899 163.799 289.384 162.721 292.436C161.135 296.962 157.782 299.871 154.003 302.376C146.909 307.057 138.986 309.697 130.825 311.719C123.584 313.532 116.261 314.376 108.844 313.254C104.072 312.528 99.3315 311.43 97.176 306.301C96.54 304.778 95.9699 302.892 96.2901 301.365C97.2135 296.973 98.529 292.66 99.8552 288.346C100.562 286.028 101.778 283.857 102.406 281.52C103.265 278.324 102.481 275.566 99.7331 273.343C95.3327 269.785 93.6182 264.275 96.2259 260.481C97.8931 258.166 100.183 256.373 102.83 255.311C108.158 253.239 111.984 249.94 113.888 244.604C114.976 241.545 115.832 238.408 116.45 235.22C116.719 233.945 116.056 232.475 115.874 231.457ZM60.3505 252.674C62.9396 251.466 65.7646 250.493 68.2274 248.961C79.0151 242.251 87.6723 233.271 94.9246 222.921C97.8467 218.739 100.422 214.259 101.148 208.998C101.74 204.805 99.5731 201.182 95.4474 200.148C93.3484 199.653 91.1976 199.413 89.0414 199.431C80.8765 199.412 73.3023 201.314 69.5036 209.319C67.1009 214.369 65.6064 219.974 64.5231 225.496C62.7995 234.303 61.7594 243.248 60.3505 252.674Z" fill="#40BFBF"/>
<path d="M272.974 244.299C277.787 245.365 282.21 243.812 286.476 241.955C291.673 239.691 296.597 236.846 301.868 234.835C304.189 233.95 307.179 233.986 309.661 234.538C313.278 235.343 315.278 240.72 313.852 244.247C312.524 247.524 310.207 250.305 307.226 252.201C301.522 255.933 295.803 259.678 289.865 263.011C285.188 265.64 279.871 265.849 274.603 265.499C266.485 265.003 264.953 265.816 262.511 274.698C262.204 275.83 262.079 276.978 261.851 278.32C266.502 278.721 270.653 277.266 274.753 275.801C280.313 273.833 285.709 271.414 291.339 269.623C293.909 268.802 296.634 268.594 299.298 269.016C306.516 270.304 309.077 279.003 304.044 284.555C300.499 288.466 295.748 290.338 290.829 291.447C282.843 293.24 274.746 294.526 266.704 296.08C263.349 296.733 260.03 297.557 256.684 298.242C250.281 299.556 241.305 296.693 241.499 287.166C241.571 283.697 241.927 280.233 242.159 276.685C237.414 278.473 232.571 280.307 227.72 282.124C219.813 285.085 211.932 288.119 203.983 290.959C199.434 292.599 194.844 294.402 190.118 295.159C187.007 295.662 183.444 294.944 180.396 293.875C173.519 291.456 172.574 284.2 175.221 278.863C178.846 271.553 182.984 264.461 186.081 256.94C189.811 247.904 192.785 238.542 195.849 229.24C196.803 226.339 198.233 224.028 200.687 222.333C204.754 219.541 210.575 222.179 211.947 227.199C213.271 232.05 212.406 236.66 210.793 241.178C208.101 248.705 205.165 256.151 202.471 263.7C201.821 265.536 201.845 267.608 201.434 270.433C205.981 268.952 209.604 267.747 213.237 266.589C224.635 262.965 236.036 259.372 247.424 255.716C248.293 255.437 249.543 254.915 249.742 254.206C251.488 248.375 253.052 242.483 254.595 236.594C254.763 235.944 254.457 235.17 254.311 233.95C251.006 234.609 247.728 235.362 244.419 235.9C239.523 236.694 234.62 237.527 229.684 237.992C224.862 238.449 220.914 235.976 219.144 232.47C217.374 228.964 219.051 225.982 221.637 223.018C225.008 219.198 229.824 218.326 234.477 217.375C240.103 216.231 245.874 215.661 251.388 214.131C255.353 213.029 259.105 211.266 262.486 208.916C266.183 206.284 269.767 205.159 274.034 206.603C281.494 209.138 288.471 206.809 295.381 204.427C309.659 199.516 323.836 194.316 338.153 189.548C343.155 187.854 348.458 187.072 353.651 186.012C354.841 185.771 356.145 186.064 357.393 186.172C359.52 186.356 361.447 187.198 361.931 189.374C362.444 191.694 362.05 194.024 360.055 195.763C354.466 200.642 348.476 204.814 341.382 207.305C333.884 209.976 326.542 213.093 319.054 215.802C311.565 218.51 303.955 221.03 296.364 223.52C292.881 224.66 289.342 225.697 285.785 226.489C277.216 228.396 272.6 234.866 272.974 244.299Z" fill="#40BFBF"/>
<path d="M175.155 129.699C167.722 133.468 160.326 136.948 153.194 140.9C145.832 144.989 141.932 151.462 141.406 159.994C141.123 164.622 138.686 166.917 134.697 166.847C132.793 166.822 130.955 166.142 129.491 164.922C128.027 163.702 127.026 162.015 126.656 160.144C125.375 153.503 127.178 147.189 129.436 141.153C134.575 127.399 140.295 113.887 145.475 100.155C148.832 91.2454 151.45 82.052 154.817 73.1357C156.475 68.7108 158.884 64.5409 162.706 61.3846C166.774 58.0125 170.98 57.887 175.161 61.2136C180.394 65.3726 183.772 70.7607 186.227 76.9327C192.277 92.1734 194.238 108.194 195.568 124.338C196.184 131.815 196.707 139.296 197.062 146.787C197.258 150.848 194.875 153.728 191.73 155.911C189.589 157.394 186.998 156.258 185.243 154.339C179.406 147.953 176.692 140.169 175.652 131.704C175.521 131.027 175.355 130.358 175.155 129.699ZM168.415 91.4206C164.329 96.837 161.316 101.955 159.749 107.908C158.298 113.419 159.396 114.826 164.853 114.014C170.558 113.168 172.802 110.26 171.69 104.623C170.833 100.389 169.63 96.23 168.415 91.4206Z" fill="#40BFBF"/>
<path d="M122.628 92.2882C125.889 94.088 128.41 95.4617 130.883 96.9012C132.473 97.8059 132.843 99.1139 131.997 100.858C128.821 107.397 126.317 109.136 119.092 108.517C115.733 108.224 114.692 110.401 113.588 112.461C109.507 120.271 106.412 128.561 104.376 137.137C103.272 141.617 100.907 145.891 96.4358 147.679C90.9577 149.873 85.8263 146.923 85.8949 139.683C85.9538 133.276 87.263 126.763 88.8611 120.516C90.3258 114.8 92.9082 109.378 94.9996 103.828C96.3695 100.199 96.0293 96.5329 93.9306 93.4772C90.7944 88.9251 87.5699 84.2741 83.6273 80.4755C75.6023 72.8074 66.9319 65.868 58.8643 58.2543C54.2551 53.9113 49.2013 49.7364 47.2246 43.2225C46.1095 39.5235 47.3309 37.0287 50.9737 35.7168C56.7651 33.6278 61.8238 35.5136 66.5328 38.6347C73.0645 42.9612 77.8479 49.0353 82.7511 55.0129C88.5617 62.0864 94.5421 69.0247 100.497 75.9769C101.307 76.7894 102.192 77.5248 103.138 78.1739C106.767 81.0848 107.099 81.1217 109.467 77.1099C111.604 73.4873 113.334 69.6231 115.452 65.9917C117.964 61.6726 120.343 57.1943 123.48 53.3533C125.225 51.2119 128.219 49.6821 130.949 48.8299C138.355 46.5312 144.017 55.1499 142.805 61.0984C141.815 65.8923 139.249 69.8565 136.365 73.6672C135.991 74.1553 135.611 74.6333 135.249 75.131L122.628 92.2882Z" fill="#40BFBF"/>
<path d="M262.508 146.588C266.557 142.55 270.222 139.002 273.782 135.346C282.24 126.669 290.441 117.716 299.151 109.316C303.787 104.83 309.18 101.103 314.375 97.2291C316.643 95.5342 319.527 94.5924 322.179 96.0599C325.141 97.6982 326.576 102.284 325.564 105.614C323.673 111.676 320.191 117.118 315.481 121.372C305.914 130.236 298.001 140.507 290.02 150.752C282.51 160.411 275.838 170.807 266.471 178.886C264.324 180.781 261.821 182.227 259.107 183.139C252.571 185.17 248.638 181.359 245.104 175.037C239.713 165.395 237.254 154.712 234.869 144.059C233.929 139.864 233.376 135.593 233.217 131.297C233.141 129.16 234.143 126.883 235.024 124.834C237.947 118.057 244.405 116.419 250.255 120.942C257.181 126.284 260.859 133.487 261.949 142.094C262.125 143.338 262.269 144.591 262.508 146.588Z" fill="#40BFBF"/>
</svg>
